# xmcd CD database file
#
# Track frame offsets:
#	150
#	19027
#	39541
#	58902
#	78779
#	98473
#	119913
#	138072
#	164377
#	182675
#	208095
#	234496
#	255996
#	277552
#	301657
#
# Disc length: 4294 seconds
#
# Revision: 3
# Processed by: cddbd v1.5.2PL0 Copyright (c) Steve Scherf et al.
# Submitted via: CDex 1.70beta3
#
DISCID=b710c40f
DTITLE=柴崎コウ - Single Best
DYEAR=1900
DGENRE=J-Pop
TTITLE0=KISSして/ KOH+
TTITLE1=ひと恋めぐり
TTITLE2=かたちあるもの
TTITLE3=影
TTITLE4=Prism
TTITLE5=at home
TTITLE6=invitation
TTITLE7=眠レナイ夜ハ眠ラナイ夢ヲ　
TTITLE8=glitter
TTITLE9=思い出だけではつらすぎる
TTITLE10=いくつかの空
TTITLE11=Trust my feelings
TTITLE12=月のしずく／ＲＵＩ
TTITLE13=actuality
TTITLE14=Sweet Mom
EXTD=
EXTT0=
EXTT1=
EXTT2=
EXTT3=
EXTT4=
EXTT5=
EXTT6=
EXTT7=
EXTT8=
EXTT9=
EXTT10=
EXTT11=
EXTT12=
EXTT13=
EXTT14=
PLAYORDER=
